<?xml version="1.0" encoding="utf-8"?>
<!-- Generator: Adobe Illustrator 17.0.0, SVG Export Plug-In . SVG Version: 6.00 Build 0)  -->
<!DOCTYPE svg PUBLIC "-//W3C//DTD SVG 1.1//EN" "http://www.w3.org/Graphics/SVG/1.1/DTD/svg11.dtd">
<svg version="1.1" id="Layer_1" xmlns="http://www.w3.org/2000/svg" xmlns:xlink="http://www.w3.org/1999/xlink" x="0px" y="0px"
	 width="487px" height="108px" viewBox="-69.75 0 487 108" enable-background="new -69.75 0 487 108" xml:space="preserve">
<g id="font">
	<rect x="276" y="1.015" display="none" fill="#264A80" stroke="#FFFFFF" stroke-miterlimit="10" width="15.248" height="15.248"/>
	
		<rect x="292.574" y="18.252" display="none" fill="#30CCE5" stroke="#FFFFFF" stroke-miterlimit="10" width="15.248" height="15.248"/>
	<rect x="276" y="18.252" display="none" fill="#2E9FE6" stroke="#FFFFFF" stroke-miterlimit="10" width="15.248" height="15.248"/>
	
		<rect x="292.552" y="1.037" display="none" fill="#FF4F00" stroke="#FFFFFF" stroke-miterlimit="10" width="15.248" height="15.248"/>
	<g>
		<path fill="#FFFFFF" stroke="#FFFFFF" stroke-miterlimit="10" d="M-9.575,58.2h-8.789V39.919h-17.139V58.2h-8.789V15.544h8.789
			v17.285h17.139V15.544h8.789C-9.575,15.544-9.575,58.2-9.575,58.2z"/>
		<path fill="#FFFFFF" stroke="#FFFFFF" stroke-miterlimit="10" d="M-6.174,42.058c0-3.145,0.605-5.947,1.816-8.408
			s2.954-4.365,5.229-5.713s4.917-2.021,7.925-2.021c4.277,0,7.768,1.309,10.474,3.926c2.705,2.618,4.214,6.172,4.526,10.664
			l0.059,2.168c0,4.863-1.358,8.765-4.072,11.704c-2.715,2.939-6.357,4.409-10.928,4.409s-8.218-1.465-10.942-4.395
			s-4.087-6.914-4.087-11.953V42.058z M2.293,42.659c0,3.013,0.566,5.316,1.699,6.91c1.132,1.595,2.754,2.392,4.863,2.392
			c2.051,0,3.652-0.787,4.805-2.362c1.152-1.574,1.729-4.093,1.729-7.555c0-2.954-0.576-5.242-1.729-6.866s-2.773-2.436-4.863-2.436
			c-2.07,0-3.672,0.807-4.805,2.421C2.859,36.776,2.293,39.275,2.293,42.659z"/>
		<path fill="#FFFFFF" stroke="#FFFFFF" stroke-miterlimit="10" d="M44.483,34.44c-1.153-0.156-2.168-0.234-3.047-0.234
			c-3.204,0-5.303,1.084-6.299,3.252V58.2H26.67V26.501h7.998l0.234,3.779c1.699-2.91,4.053-4.365,7.061-4.365
			c0.938,0,1.816,0.127,2.637,0.381L44.483,34.44z"/>
		<path fill="#FFFFFF" stroke="#FFFFFF" stroke-miterlimit="10" d="M46.096,18.298c0-1.27,0.425-2.314,1.274-3.135
			s2.007-1.23,3.472-1.23c1.445,0,2.597,0.41,3.457,1.23c0.859,0.82,1.289,1.865,1.289,3.135c0,1.289-0.435,2.344-1.304,3.164
			s-2.017,1.23-3.442,1.23c-1.426,0-2.574-0.41-3.442-1.23C46.531,20.642,46.096,19.587,46.096,18.298z M55.09,58.2h-8.496V26.501
			h8.496C55.09,26.501,55.09,58.2,55.09,58.2z"/>
		<path fill="#FFFFFF" stroke="#FFFFFF" stroke-miterlimit="10" d="M69.39,51.374h15.498V58.2H58.579v-5.156l14.912-19.717H59.019
			v-6.826h25.4v4.988L69.39,51.374z"/>
		<path fill="#FFFFFF" stroke="#FFFFFF" stroke-miterlimit="10" d="M86.003,42.058c0-3.145,0.605-5.947,1.816-8.408
			s2.954-4.365,5.229-5.713s4.917-2.021,7.925-2.021c4.277,0,7.768,1.309,10.474,3.926c2.705,2.618,4.214,6.172,4.526,10.664
			l0.059,2.168c0,4.863-1.358,8.765-4.072,11.704c-2.715,2.939-6.357,4.409-10.928,4.409s-8.218-1.465-10.942-4.395
			s-4.087-6.914-4.087-11.953C86.003,42.439,86.003,42.058,86.003,42.058z M94.47,42.659c0,3.013,0.566,5.316,1.699,6.91
			c1.132,1.595,2.754,2.392,4.863,2.392c2.051,0,3.652-0.787,4.805-2.362c1.152-1.574,1.729-4.093,1.729-7.555
			c0-2.954-0.576-5.242-1.729-6.866s-2.773-2.436-4.863-2.436c-2.07,0-3.672,0.807-4.805,2.421
			C95.037,36.776,94.47,39.275,94.47,42.659z"/>
		<path fill="#FFFFFF" stroke="#FFFFFF" stroke-miterlimit="10" d="M126.641,26.501l0.264,3.662
			c2.266-2.832,5.303-4.248,9.111-4.248c3.359,0,5.859,0.986,7.5,2.959s2.48,4.922,2.52,8.848V58.2h-8.467V37.88
			c0-1.801-0.391-3.107-1.172-3.92c-0.781-0.813-2.08-1.219-3.896-1.219c-2.383,0-4.17,1.018-5.361,3.054V58.2h-8.467V26.501
			H126.641z"/>
		<path fill="#FFFFFF" stroke="#FFFFFF" stroke-miterlimit="10" d="M188.813,39.655h-16.875V51.14h19.805v7.06h-28.594V15.544
			h28.535v7.119h-19.746v10.166h16.875L188.813,39.655L188.813,39.655z"/>
		<path fill="#FFFFFF" stroke="#FFFFFF" stroke-miterlimit="10" d="M205.046,47.858l5.889-21.357h8.848L209.089,58.2h-8.086
			L190.31,26.501h8.848L205.046,47.858z"/>
		<path fill="#FFFFFF" stroke="#FFFFFF" stroke-miterlimit="10" d="M235.313,58.786c-4.648,0-8.433-1.426-11.353-4.277
			s-4.38-6.65-4.38-11.396v-0.82c0-3.183,0.615-6.03,1.846-8.54c1.23-2.509,2.974-4.443,5.229-5.801
			c2.256-1.357,4.829-2.036,7.72-2.036c4.336,0,7.749,1.367,10.239,4.102s3.735,6.611,3.735,11.631v3.457h-20.186
			c0.273,2.07,1.099,3.73,2.476,4.98s3.12,1.875,5.229,1.875c3.262,0,5.811-1.182,7.646-3.545l4.16,4.658
			c-1.27,1.797-2.988,3.198-5.156,4.204S237.949,58.786,235.313,58.786z M234.346,32.741c-1.68,0-3.042,0.569-4.087,1.707
			s-1.714,2.766-2.007,4.885h11.777v-0.677c-0.039-1.883-0.547-3.34-1.523-4.37S236.143,32.741,234.346,32.741z"/>
		<path fill="#FFFFFF" stroke="#FFFFFF" stroke-miterlimit="10" d="M258.547,26.501l0.264,3.662
			c2.266-2.832,5.303-4.248,9.111-4.248c3.359,0,5.859,0.986,7.5,2.959s2.48,4.922,2.52,8.848V58.2h-8.467V37.88
			c0-1.801-0.391-3.107-1.172-3.92s-2.08-1.219-3.896-1.219c-2.383,0-4.17,1.018-5.361,3.054V58.2h-8.467V26.501H258.547z"/>
		<path fill="#FFFFFF" stroke="#FFFFFF" stroke-miterlimit="10" d="M292.095,18.708v7.793h5.42v6.211h-5.42v15.82
			c0,1.172,0.225,2.012,0.674,2.52s1.309,0.762,2.578,0.762c0.938,0,1.768-0.068,2.49-0.205v6.416
			c-1.66,0.508-3.369,0.762-5.127,0.762c-5.938,0-8.965-2.998-9.082-8.994v-17.08h-4.629v-6.211h4.629v-7.793L292.095,18.708
			L292.095,18.708z"/>
		<path fill="#FFFFFF" stroke="#FFFFFF" stroke-miterlimit="10" d="M316.999,49.44c0-1.035-0.513-1.85-1.538-2.446
			s-2.671-1.128-4.937-1.597c-7.539-1.582-11.309-4.785-11.309-9.609c0-2.813,1.167-5.161,3.501-7.046s5.386-2.827,9.155-2.827
			c4.023,0,7.241,0.948,9.653,2.842c2.412,1.895,3.618,4.355,3.618,7.383h-8.467c0-1.211-0.391-2.212-1.172-3.003
			s-2.002-1.187-3.662-1.187c-1.426,0-2.529,0.322-3.311,0.967s-1.172,1.465-1.172,2.461c0,0.938,0.444,1.695,1.333,2.271
			s2.388,1.074,4.497,1.494s3.887,0.894,5.332,1.421c4.473,1.641,6.709,4.482,6.709,8.525c0,2.891-1.24,5.229-3.721,7.017
			s-5.684,2.681-9.609,2.681c-2.656,0-5.015-0.474-7.075-1.421s-3.677-2.246-4.849-3.896s-1.758-3.433-1.758-5.347h8.027
			c0.078,1.504,0.635,2.656,1.67,3.457s2.422,1.201,4.16,1.201c1.621,0,2.847-0.308,3.677-0.923S316.999,50.437,316.999,49.44z"/>
	</g>
	<g>
		<g>
			<path fill="#FFFFFF" stroke="#FFFFFF" stroke-width="0.2275" stroke-miterlimit="10" d="M210.069,85.646l0.047,0.141
				c0.063,3.5-0.996,6.176-3.176,8.027s-5.051,2.777-8.613,2.777c-3.734,0-6.727-1.379-8.977-4.137s-3.375-6.379-3.375-10.863
				v-5.109c0-4.469,1.125-8.086,3.375-10.852s5.242-4.148,8.977-4.148c3.563,0,6.434,0.93,8.613,2.789
				c2.179,1.859,3.238,4.516,3.176,7.969l-0.047,0.141h-1.078c0-3.078-0.957-5.453-2.871-7.125s-4.512-2.508-7.793-2.508
				c-3.328,0-6.008,1.258-8.039,3.773s-3.047,5.82-3.047,9.914v5.156c0,4.141,1.016,7.465,3.047,9.973s4.711,3.762,8.039,3.762
				c3.281,0,5.879-0.805,7.793-2.414s2.871-4.031,2.871-7.266H210.069z"/>
			<path fill="#FFFFFF" stroke="#FFFFFF" stroke-width="0.2275" stroke-miterlimit="10" d="M211.901,82.928
				c0-3.719,1.027-6.758,3.082-9.117c2.054-2.359,4.722-3.539,8.003-3.539c3.297,0,5.973,1.18,8.027,3.539s3.082,5.398,3.082,9.117
				v0.984c0,3.734-1.027,6.781-3.082,9.141s-4.715,3.539-7.98,3.539c-3.297,0-5.977-1.18-8.039-3.539
				c-2.063-2.359-3.094-5.406-3.094-9.141L211.901,82.928L211.901,82.928z M213.167,83.912c0,3.188,0.891,5.887,2.671,8.098
				c1.781,2.211,4.18,3.316,7.195,3.316c2.969,0,5.344-1.109,7.125-3.328s2.672-4.914,2.672-8.086v-0.984
				c0-3.109-0.898-5.785-2.695-8.027s-4.18-3.363-7.148-3.363c-2.984,0-5.367,1.121-7.148,3.363
				c-1.781,2.242-2.671,4.918-2.671,8.027v0.984H213.167z"/>
			<path fill="#FFFFFF" stroke="#FFFFFF" stroke-width="0.2275" stroke-miterlimit="10" d="M255.709,83.889
				c0,3.906-0.844,7-2.531,9.281s-4.016,3.422-6.984,3.422c-1.969,0-3.684-0.391-5.145-1.172s-2.613-1.844-3.457-3.188v13.617
				h-1.266V89.162c-0.016-0.047-0.027-0.086-0.035-0.117s-0.012-0.063-0.012-0.094V78.639c0-0.016,0-0.027,0-0.035
				s0.016-0.059,0.047-0.152V70.74h0.984l0.258,4.477c0.844-1.531,1.992-2.738,3.445-3.621s3.164-1.324,5.133-1.324
				c2.984,0,5.324,1.184,7.02,3.551s2.543,5.559,2.543,9.574L255.709,83.889L255.709,83.889z M254.42,83.396
				c0-3.516-0.707-6.371-2.121-8.566s-3.457-3.293-6.129-3.293c-2.406,0-4.285,0.602-5.637,1.805s-2.332,2.688-2.941,4.453v12.117
				c0.641,1.656,1.688,2.973,3.141,3.949s3.281,1.465,5.484,1.465c2.672,0,4.707-1.031,6.105-3.094s2.098-4.844,2.098-8.344
				L254.42,83.396L254.42,83.396z"/>
			<path fill="#FFFFFF" stroke="#FFFFFF" stroke-width="0.2275" stroke-miterlimit="10" d="M267.643,96.592
				c-2.984,0-5.504-1.156-7.559-3.469s-3.082-5.227-3.082-8.742v-1.5c0-3.672,1.02-6.691,3.059-9.059s4.605-3.551,7.699-3.551
				c2.813,0,5.055,0.926,6.727,2.777s2.508,4.379,2.508,7.582v1.945h-18.727v0.305v1.5c0,3.094,0.875,5.691,2.625,7.793
				s4,3.152,6.75,3.152c1.516,0,2.973-0.281,4.371-0.844s2.535-1.313,3.41-2.25l0.68,0.984c-0.891,0.984-2.039,1.793-3.445,2.426
				S269.58,96.592,267.643,96.592z M267.76,71.537c-2.625,0-4.777,0.91-6.457,2.73s-2.629,4.121-2.848,6.902l0.07,0.141h17.203
				v-0.773c0-2.609-0.711-4.762-2.133-6.457S270.229,71.537,267.76,71.537z"/>
			<path fill="#FFFFFF" stroke="#FFFFFF" stroke-width="0.2275" stroke-miterlimit="10" d="M280.349,70.74l0.164,5.109
				c0.781-1.766,1.906-3.137,3.375-4.113s3.273-1.465,5.414-1.465c2.766,0,4.84,0.871,6.223,2.613s2.074,4.504,2.074,8.285V96.1
				h-1.266V81.123c0-3.516-0.629-5.992-1.887-7.43s-2.965-2.156-5.121-2.156c-2.656,0-4.688,0.773-6.094,2.32
				s-2.305,3.539-2.695,5.977V96.1h-1.266V83.115h-0.07c0-0.297,0.004-0.598,0.012-0.902s0.027-0.613,0.059-0.926V70.74H280.349z"/>
			<path fill="#FFFFFF" stroke="#FFFFFF" stroke-width="0.2275" stroke-miterlimit="10" d="M302.97,76.014
				c0.797-1.813,1.953-3.223,3.469-4.23s3.359-1.512,5.531-1.512c2.641,0,4.645,0.836,6.012,2.508s2.051,4.305,2.051,7.898V96.1
				h-1.289V80.631c0-3.328-0.613-5.676-1.84-7.043s-2.863-2.051-4.91-2.051c-2.688,0-4.762,0.789-6.223,2.367
				s-2.395,3.602-2.801,6.07V96.1h-1.266V83.115h-0.047c0-0.328,0-0.602,0-0.82s0.016-0.438,0.047-0.656V59.537h1.266V76.014z"/>
			<path fill="#FFFFFF" stroke="#FFFFFF" stroke-width="0.2275" stroke-miterlimit="10" d="M340.052,91.412
				c-0.875,1.531-2.18,2.777-3.914,3.738s-3.836,1.441-6.305,1.441c-2.359,0-4.211-0.645-5.555-1.934s-2.016-3.027-2.016-5.215
				c0-2.125,1.004-3.906,3.012-5.344s4.52-2.156,7.535-2.156h7.242V78.24c0-2.109-0.676-3.754-2.027-4.934s-3.254-1.77-5.707-1.77
				c-2.297,0-4.145,0.555-5.543,1.664s-2.098,2.539-2.098,4.289l-1.055-0.047l-0.047-0.117c-0.094-1.969,0.672-3.637,2.297-5.004
				s3.773-2.051,6.445-2.051c2.719,0,4.898,0.688,6.539,2.063s2.461,3.359,2.461,5.953V90.99c0,0.891,0.051,1.758,0.152,2.602
				s0.27,1.68,0.504,2.508h-1.406c-0.203-1.109-0.34-1.941-0.41-2.496s-0.105-1.152-0.105-1.793L340.052,91.412L340.052,91.412z
				 M329.833,95.35c2.516,0,4.645-0.555,6.387-1.664s3.02-2.695,3.832-4.758v-5.695h-7.172c-2.625,0-4.84,0.605-6.645,1.816
				s-2.707,2.707-2.707,4.488c0,1.703,0.574,3.098,1.723,4.184S327.927,95.35,329.833,95.35z"/>
			<path fill="#FFFFFF" stroke="#FFFFFF" stroke-width="0.2275" stroke-miterlimit="10" d="M344.462,83.396
				c0-4.016,0.844-7.207,2.531-9.574s4.031-3.551,7.031-3.551c1.969,0,3.676,0.445,5.121,1.336s2.598,2.109,3.457,3.656l0.188-4.523
				h1.078v7.805c0,0.031,0,0.055,0,0.07s0.008,0.023,0.023,0.023v10.336c-0.016,0.031-0.023,0.055-0.023,0.07s0,0.031,0,0.047v7.148
				c0,3.219-0.848,5.707-2.543,7.465s-4.043,2.637-7.043,2.637c-1.234,0-2.52-0.129-3.855-0.387s-2.504-0.613-3.504-1.066
				l0.375-1.266c1.141,0.5,2.242,0.871,3.305,1.113s2.273,0.363,3.633,0.363c2.734,0,4.809-0.762,6.223-2.285
				s2.121-3.715,2.121-6.574v-4.008c-0.859,1.344-2.02,2.406-3.48,3.188s-3.168,1.172-5.121,1.172c-2.984,0-5.316-1.141-6.996-3.422
				s-2.52-5.375-2.52-9.281L344.462,83.396L344.462,83.396z M345.751,83.889c0,3.5,0.695,6.281,2.086,8.344s3.43,3.094,6.117,3.094
				c2.172,0,3.984-0.488,5.438-1.465s2.516-2.285,3.188-3.926V77.795c-0.625-1.766-1.613-3.25-2.965-4.453s-3.223-1.805-5.613-1.805
				c-2.688,0-4.734,1.098-6.141,3.293s-2.109,5.051-2.109,8.566L345.751,83.889L345.751,83.889z"/>
			<path fill="#FFFFFF" stroke="#FFFFFF" stroke-width="0.2275" stroke-miterlimit="10" d="M376.95,96.592
				c-2.984,0-5.504-1.156-7.559-3.469s-3.082-5.227-3.082-8.742v-1.5c0-3.672,1.02-6.691,3.059-9.059s4.605-3.551,7.699-3.551
				c2.813,0,5.055,0.926,6.727,2.777s2.508,4.379,2.508,7.582v1.945h-18.727v0.305v1.5c0,3.094,0.875,5.691,2.625,7.793
				s4,3.152,6.75,3.152c1.516,0,2.973-0.281,4.371-0.844s2.535-1.313,3.41-2.25l0.68,0.984c-0.891,0.984-2.039,1.793-3.445,2.426
				S378.888,96.592,376.95,96.592z M377.067,71.537c-2.625,0-4.777,0.91-6.457,2.73s-2.629,4.121-2.848,6.902l0.07,0.141h17.203
				v-0.773c0-2.609-0.711-4.762-2.133-6.457S379.536,71.537,377.067,71.537z"/>
			<path fill="#FFFFFF" stroke="#FFFFFF" stroke-width="0.2275" stroke-miterlimit="10" d="M389.657,70.74l0.164,5.109
				c0.781-1.766,1.906-3.137,3.375-4.113s3.273-1.465,5.414-1.465c2.766,0,4.84,0.871,6.223,2.613s2.074,4.504,2.074,8.285V96.1
				h-1.266V81.123c0-3.516-0.629-5.992-1.887-7.43s-2.965-2.156-5.121-2.156c-2.656,0-4.688,0.773-6.094,2.32
				s-2.305,3.539-2.695,5.977V96.1h-1.266V83.115h-0.07c0-0.297,0.004-0.598,0.012-0.902s0.027-0.613,0.059-0.926V70.74H389.657z"/>
		</g>
	</g>
	<g display="none">
		<g display="inline">
			<g>
				<path display="none" fill="#FFFFFF" stroke="#FFFFFF" stroke-width="1.4169" stroke-miterlimit="10" d="M68.172,431.867
					c0-94.934,0-189.824,0-284.673c94.934,0,189.824,0,284.673,0c0,94.934,0,189.824,0,284.673
					C257.91,431.867,163.019,431.867,68.172,431.867z M334.462,288.638c-0.004-68.771-55.934-124.476-124.983-124.482
					c-68.527-0.006-124.455,56.298-124.344,125.179c0.111,68.403,55.926,124.017,124.605,124.151
					C278.26,413.622,334.467,357.358,334.462,288.638z"/>
				<path fill="#FF4F00" stroke="#FFFFFF" stroke-miterlimit="10" d="M-29.392,47.554c0.001,16.195-13.245,29.455-29.394,29.423
					c-16.186-0.032-29.34-13.138-29.366-29.259c-0.026-16.233,13.155-29.502,29.304-29.501
					C-42.574,18.219-29.393,31.347-29.392,47.554z M-58.577,34.473c-6.051-0.033-11.781,0.845-17.323,2.904
					c-1.125,0.418-1.36,0.935-1.066,2.097c1.94,7.661,5.83,14.253,10.938,20.18c0.381,0.442,1.118,0.755,1.717,0.806
					c7.728,0.662,15.318,0.109,22.657-2.651c1.122-0.422,1.366-0.921,1.069-2.089c-1.457-5.734-3.91-11.014-7.455-15.71
					C-52.932,33.528-50.698,34.83-58.577,34.473z M-32.493,40.568c-3.539-15.536-21.601-24.46-35.699-18.474
					c6.59,1.449,11.552,5.353,16.157,9.866c0.547,0.537,1.361,0.972,2.112,1.103C-43.543,34.179-37.51,36.066-32.493,40.568z
					 M-85.08,54.61c3.806,16.043,22.17,24.381,35.332,18.639c-2.077-0.893-4.557-1.57-6.588-2.922
					c-3.218-2.143-6.126-4.75-9.189-7.13c-0.542-0.421-1.165-0.892-1.809-1.006C-73.799,61.049-79.977,59.26-85.08,54.61z
					 M-77.684,35.335c3.878-0.841,7.62-1.894,11.435-2.411c3.788-0.514,7.65-0.487,11.612-0.705c-0.95-0.837-1.83-1.675-2.773-2.433
					c-3.457-2.778-7.139-5.115-11.654-5.759c-3.211-0.458-5.965,0.669-7.351,3.106C-77.903,29.751-78.004,32.588-77.684,35.335z
					 M-63.246,62.636c4.303,4.004,8.441,7.33,13.898,8.346c6.6,1.228,11.54-4.886,9.202-11.418
					C-47.42,62.351-54.982,63.174-63.246,62.636z M-48.566,35.59c4.725,6.229,8.429,12.908,10.292,20.791
					c1.351-0.997,2.583-1.76,3.643-2.714c4.323-3.89,4.35-8.284,0.015-12.13C-38.562,38.034-43.415,36.518-48.566,35.59z
					 M-69.031,59.786c-4.691-6.403-8.378-13.089-10.286-21.154c-1.802,1.545-3.505,2.723-4.854,4.221
					c-2.798,3.107-2.628,6.736,0.282,9.87c2.814,3.03,6.466,4.635,10.305,5.869C-72.092,59.071-70.55,59.392-69.031,59.786z
					 M-79.638,29.885c-2.665,3.269-4.539,6.63-5.461,10.561c1.709-1.157,3.322-2.215,4.888-3.338
					c0.289-0.207,0.539-0.674,0.548-1.028C-79.611,34.119-79.638,32.155-79.638,29.885z M-37.9,65.251
					c2.682-3.196,4.501-6.604,5.467-10.532c-1.696,1.152-3.311,2.206-4.868,3.342c-0.315,0.23-0.56,0.765-0.573,1.167
					C-37.933,61.148-37.9,63.071-37.9,65.251z"/>
				<path fill="#FFFFFF" stroke="#FFFFFF" stroke-width="0.3339" stroke-miterlimit="10" d="M-48.039,40.01
					c3.545,4.696,5.997,9.976,7.455,15.71c0.297,1.168,0.052,1.667-1.069,2.089c-7.34,2.76-14.929,3.314-22.657,2.651
					c-0.599-0.051-1.335-0.364-1.717-0.806c-5.108-5.927-8.998-12.519-10.938-20.18c-0.294-1.162-0.059-1.679,1.066-2.097
					c5.542-2.06,11.272-2.937,17.323-2.904 M-58.757,39.922c-4.184-0.007-7.661,3.436-7.69,7.615
					c-0.028,4.18,3.403,7.685,7.573,7.734c4.245,0.05,7.789-3.46,7.776-7.7C-51.111,43.391-54.577,39.929-58.757,39.922z"/>
				<path fill="#FFFFFF" stroke="#FFFFFF" stroke-width="0.3339" stroke-miterlimit="10" d="M-32.493,40.568
					c-5.016-4.502-11.05-6.389-17.43-7.504c-0.751-0.131-1.565-0.567-2.112-1.103c-4.604-4.514-9.567-8.417-16.157-9.866
					C-54.094,16.108-36.032,25.031-32.493,40.568z"/>
				<path fill="#FFFFFF" stroke="#FFFFFF" stroke-width="0.3339" stroke-miterlimit="10" d="M-85.08,54.61
					c5.103,4.65,11.281,6.439,17.745,7.581c0.644,0.114,1.267,0.584,1.809,1.006c3.063,2.38,5.971,4.987,9.189,7.13
					c2.031,1.352,4.511,2.029,6.588,2.922C-62.909,78.991-81.274,70.653-85.08,54.61z"/>
				<path fill="#FFFFFF" stroke="#FFFFFF" stroke-width="0.3339" stroke-miterlimit="10" d="M-77.684,35.335
					c-0.32-2.748-0.22-5.584,1.269-8.202c1.386-2.437,4.14-3.564,7.351-3.106c4.514,0.644,8.197,2.982,11.654,5.759
					c0.944,0.758,1.823,1.596,2.773,2.433c-3.962,0.218-7.824,0.192-11.612,0.705C-70.064,33.441-73.806,34.494-77.684,35.335z"/>
				<path fill="#FFFFFF" stroke="#FFFFFF" stroke-width="0.3339" stroke-miterlimit="10" d="M-63.246,62.636
					c8.264,0.538,15.826-0.285,23.1-3.072c2.338,6.532-2.602,12.647-9.202,11.418C-54.805,69.966-58.944,66.64-63.246,62.636z"/>
				<path fill="#FFFFFF" stroke="#FFFFFF" stroke-width="0.3339" stroke-miterlimit="10" d="M-48.566,35.59
					c5.151,0.929,10.004,2.445,13.95,5.946c4.335,3.846,4.309,8.24-0.015,12.13c-1.06,0.954-2.292,1.717-3.643,2.714
					C-40.137,48.497-43.842,41.819-48.566,35.59z"/>
				<path fill="#FFFFFF" stroke="#FFFFFF" stroke-width="0.3339" stroke-miterlimit="10" d="M-69.031,59.786
					c-1.519-0.393-3.061-0.715-4.553-1.194c-3.839-1.234-7.491-2.839-10.305-5.869c-2.91-3.134-3.08-6.763-0.282-9.87
					c1.349-1.498,3.052-2.676,4.854-4.221C-77.408,46.697-73.721,53.383-69.031,59.786z"/>
				<path fill="#FFFFFF" stroke="#FFFFFF" stroke-width="0.3339" stroke-miterlimit="10" d="M-79.638,29.885
					c0,2.27,0.027,4.233-0.025,6.194c-0.009,0.354-0.259,0.821-0.548,1.028c-1.566,1.124-3.179,2.182-4.888,3.338
					C-84.177,36.515-82.303,33.154-79.638,29.885z"/>
				<path fill="#FFFFFF" stroke="#FFFFFF" stroke-width="0.3339" stroke-miterlimit="10" d="M-37.9,65.251
					c0-2.18-0.032-4.103,0.026-6.023c0.012-0.402,0.257-0.937,0.573-1.167c1.556-1.136,3.172-2.19,4.868-3.342
					C-33.4,58.647-35.218,62.055-37.9,65.251z"/>
				<path fill="#FF4F00" stroke="#FFFFFF" stroke-miterlimit="10" d="M-58.757,39.922c4.18,0.007,7.646,3.468,7.659,7.648
					c0.013,4.241-3.531,7.751-7.776,7.7c-4.17-0.049-7.602-3.554-7.573-7.734C-66.418,43.358-62.941,39.915-58.757,39.922z
					 M-53.102,47.605c0.004-3.086-2.497-5.632-5.578-5.678c-3.159-0.047-5.757,2.504-5.761,5.658
					c-0.005,3.152,2.589,5.719,5.742,5.682C-55.622,53.231-53.107,50.687-53.102,47.605z"/>
				<path fill="#FFFFFF" stroke="#FFFFFF" stroke-width="0.3339" stroke-miterlimit="10" d="M-53.102,47.605
					c-0.004,3.081-2.52,5.625-5.598,5.661c-3.153,0.037-5.746-2.529-5.742-5.682c0.005-3.154,2.603-5.705,5.761-5.658
					C-55.599,41.973-53.098,44.52-53.102,47.605z"/>
			</g>
		</g>
	</g>
</g>
<g id="small">
	<g id="small-gear">
		<path fill="#E62B1E" d="M381.176,19.372c0,1.82-1.149,3.161-2.778,4.215c0.287,0.958,0.671,1.916,1.149,2.874
			c1.82-0.479,3.353,0.287,4.598,1.533c1.245,1.245,1.628,2.778,1.149,4.598c0.862,0.479,1.82,0.862,2.874,1.149
			c0.958-1.628,2.682-2.778,4.502-2.778s3.544,1.149,4.502,2.778c0.958-0.287,1.916-0.671,2.874-1.149
			c-0.479-1.82-0.096-3.353,1.149-4.598c1.245-1.245,2.778-2.012,4.598-1.533c0.479-0.862,0.862-1.82,1.149-2.874
			c-1.628-0.958-2.778-2.395-2.778-4.215s1.149-3.544,2.778-4.502c-0.287-0.958-0.671-1.916-1.149-2.874
			c-1.82,0.479-3.353,0.096-4.598-1.149s-1.628-2.778-1.149-4.598c-0.862-0.479-1.82-0.862-2.874-1.149
			c-0.958,1.628-2.682,2.778-4.502,2.778s-3.544-1.149-4.502-2.778c-0.958,0.287-1.916,0.671-2.874,1.149
			c0.479,1.82,0.096,3.353-1.149,4.598c-1.149,1.245-2.682,2.012-4.598,1.533c-0.479,0.862-0.862,1.82-1.149,2.874
			C380.026,16.211,381.176,17.552,381.176,19.372z M392.766,13.146c3.448,0,6.226,2.778,6.226,6.226s-2.778,6.226-6.226,6.226
			s-6.226-2.778-6.226-6.226S389.318,13.146,392.766,13.146z"/>
	</g>
</g>
<g id="big">
	<g id="large-gear_1_">
		<path fill="#E62B1E" d="M345.325,37.972c0,2.441-1.541,4.239-3.725,5.652c0.385,1.285,0.899,2.569,1.541,3.854
			c2.441-0.642,4.496,0.385,6.166,2.055c1.67,1.67,2.184,3.725,1.541,6.166c1.156,0.642,2.441,1.156,3.854,1.541
			c1.285-2.184,3.597-3.725,6.037-3.725s4.753,1.541,6.037,3.725c1.285-0.385,2.569-0.899,3.854-1.541
			c-0.642-2.441-0.128-4.496,1.541-6.166c1.67-1.67,3.725-2.698,6.166-2.055c0.642-1.156,1.156-2.441,1.541-3.854
			c-2.184-1.285-3.725-3.211-3.725-5.652s1.541-4.753,3.725-6.037c-0.385-1.285-0.899-2.569-1.541-3.854
			c-2.441,0.642-4.496,0.128-6.166-1.541c-1.67-1.67-2.184-3.725-1.541-6.166c-1.156-0.642-2.441-1.156-3.854-1.541
			c-1.285,2.184-3.597,3.725-6.037,3.725s-4.753-1.541-6.037-3.725c-1.285,0.385-2.569,0.899-3.854,1.541
			c0.642,2.441,0.128,4.496-1.541,6.166c-1.541,1.67-3.597,2.698-6.166,2.055c-0.642,1.156-1.156,2.441-1.541,3.854
			C343.784,33.732,345.325,35.531,345.325,37.972z M360.868,29.622c4.624,0,8.35,3.725,8.35,8.35s-3.725,8.35-8.35,8.35
			c-4.624,0-8.35-3.725-8.35-8.35S356.244,29.622,360.868,29.622z"/>
	</g>
</g>
<g>
</g>
</svg>
